PathFileType	4	(X/Y/Z)	C:/Users/beibeiliu/ov580/test_trc\sequence.39_training_dense_right.trc
DataRate	CameraRate	NumFrames	NumMarkers	Units	OrigDataRate	OrigDataStartFrame	OrigNumFrames
120	120	21	19	mm	120	351	400
Frame#	Time	ThumbCMC			ThumbMCP			ThumbIP			ThumbTip			IndexMCP			IndexPIP			IndexTip			MiddleMCP			MiddlePIP			MiddleTip			RingMCP			RingPIP			RingTip			PinkyMCP			PinkyPIP			PinkyTip			BackHand1			BackHand2			BackHand3	
		X0	Y0	Z0	X1	Y1	Z1	X2	Y2	Z2	X3	Y3	Z3	X4	Y4	Z4	X5	Y5	Z5	X6	Y6	Z6	X7	Y7	Z7	X8	Y8	Z8	X9	Y9	Z9	X10	Y10	Z10	X11	Y11	Z11	X12	Y12	Z12	X13	Y13	Z13	X14	Y14	Z14	X15	Y15	Z15	X16	Y16	Z16	X17	Y17	Z17	X18	Y18	Z18	
350	2.91667	163.811	28.6468	64.7982	148.79	25.2622	40.7201	143.677	22.6805	19.3685	135.53	20.3522	-2.22384	171.401	23.5663	3.98296	150.816	5.59205	-1.69882	143.414	-7.39667	25.8967	180.208	2.80737	2.00606	156.073	-12.0882	5.36077	158.594	-11.3375	38.6439	186.549	-11.6295	9.8564	160.985	-24.2068	19.907	163.4	-10.5898	43.7206	192.587	-25.1755	18.3155	172.318	-33.2748	24.8928	168.056	-17.6125	47.8093	212.92	4.11626	49.3925	212.11	3.67761	79.4012	199.145	26.8898	62.2646	
351	2.925	162.899	27.894	65.6188	147.679	25.4162	42.1211	139.807	26.5279	19.1135	140.27	18.5804	-3.47343	172.437	22.5473	4.20918	148.972	1.18667	1.03027	141.528	-5.21421	24.8303	180.805	4.26733	2.88004	153.987	-10.8448	4.20521	154.748	-8.25702	37.4586	184.185	-11.7721	8.9969	159.205	-21.7438	19.8221	163.258	-15.4081	44.2618	192.681	-23.2752	19.3649	168.526	-29.0817	25.2583	168.357	-16.9089	50.1307	208.065	5.76181	46.7069	209.772	6.44058	78.2073	196.765	27.2825	58.6946	
352	2.93333	160.735	30.9476	63.0462	144.058	27.557	41.6594	139.992	26.0331	15.9367	135.999	19.7309	0.287346	168.706	25.4256	3.56153	148.843	4.51729	-1.91238	140.962	-5.43168	25.1027	174.508	3.12204	0.567337	150.667	-10.0813	6.22241	152.766	-3.82774	39.7362	182.76	-11.9046	9.6916	158.406	-20.7297	17.0965	161.586	-8.413	45.7057	191.225	-24.0511	19.0763	165.855	-27.6963	23.5438	166.01	-14.1741	47.0305	209.506	2.20542	49.6582	206.708	3.5103	78.0716	192.904	29.7237	58.3112	
353	2.94167	158.095	30.849	66.5787	143.58	28.5614	37.1022	139.124	24.1023	15.3424	133.571	17.4651	-4.61247	169.429	22.5973	2.4939	144.87	6.56284	-1.10476	143.701	-4.08463	27.8593	175.089	3.34666	2.39382	151.827	-14.4707	5.36404	154.307	-8.38949	39.9685	179.413	-14.32	8.00352	154.135	-19.0915	21.62	159.448	-10.7632	43.8652	188.02	-25.38	18.6575	164.805	-27.2565	22.0371	165.039	-13.7316	45.9769	206.221	3.52629	50.7296	205.009	7.62656	73.3305	192.74	26.2192	62.9734	
354	2.95	155.671	32.0308	65.6478	139.195	28.5921	41.6354	135.499	23.6967	18.5823	129.707	16.274	-2.29042	163.759	24.5844	0.673979	143.93	4.47066	2.01879	142.449	-0.861129	28.8734	169.84	3.80025	-0.0157955	148.876	-13.2347	6.49903	150.669	-5.73791	41.6913	178.545	-11.0024	9.51234	153.924	-21.8953	21.1536	159.346	-9.93692	46.9712	183.409	-24.7819	16.6584	162.481	-29.5561	24.8694	164.579	-14.7968	46.8415	204.728	2.06055	49.3682	201.056	8.05456	73.995	191.538	26.281	62.8771	
355	2.95833	153.472	30.711	68.0306	136.41	27.9439	37.9393	131.446	24.0508	20.6421	130.618	11.9078	-2.87792	164.311	22.6836	2.15105	139.328	4.83201	3.53446	144.68	0.672518	32.7882	172.72	4.15702	2.75677	147.762	-13.5995	5.59168	146.049	-7.40525	39.0709	174.884	-12.2891	8.10781	151.212	-18.604	20.6684	158.257	-9.20191	47.3857	181.917	-22.9686	16.6163	163.283	-28.938	24.9406	162.515	-15.3316	47.5084	203.283	5.43361	46.3493	201.175	7.6325	74.6931	188.147	28.6064	60.7935	
356	2.96667	150.876	30.3575	66.0234	135.015	25.8956	39.273	131.093	20.8043	19.5114	126.875	12.0177	-1.52411	161	23.6906	1.40413	143.303	4.62198	0.235758	141.348	-0.635375	29.7289	168.893	3.5497	-0.492962	146.012	-13.1361	7.00381	146.879	-8.17816	38.8814	175.574	-9.90642	8.15152	153.525	-21.3324	20.6995	155.797	-14.3711	45.0835	186.333	-24.134	19.4809	163.467	-28.1844	26.3111	166.353	-13.0812	50.5467	203.371	7.4086	49.5764	202.479	7.95868	75.6699	183.24	31.8013	59.8884	
357	2.975	150.877	29.1392	63.2242	134.01	25.0639	43.34	128.937	22.7265	16.1328	132.322	9.41153	-2.38885	158.794	25.137	2.82938	138.775	3.34681	3.19498	139.428	-3.60178	28.4336	168.936	8.03512	2.69403	147.771	-14.6208	5.90493	148.421	-13.3132	38.3049	180.292	-12.1702	9.97511	154.375	-21.478	19.3536	156.471	-12.6966	45.9388	187.066	-19.946	19.3317	164.171	-26.9476	24.9331	161.864	-14.9808	47.4702	202.905	10.391	47.4341	198.91	11.2739	78.1097	187.422	29.9213	60.4292	
358	2.98333	149.712	30.0471	64.6866	132.638	26.6006	40.7594	128.541	22.7124	17.9983	127.076	12.7151	-2.68676	158.446	25.4399	2.86017	142.826	2.23024	-1.85035	138.742	-4.37443	28.9591	170.01	8.48156	1.82263	149.979	-15.0591	2.39406	144.738	-11.5017	35.1158	178.305	-7.55623	8.64404	154.569	-22.4254	18.2833	156.12	-13.2778	44.6618	189.458	-23.8836	18.7903	163.274	-28.5838	25.0259	163.517	-13.7912	47.5478	203.528	9.66704	46.4938	199.137	8.99364	77.0353	183.743	31.2974	62.0072	
359	2.99167	150.486	27.9537	68.5874	137.36	24.2478	41.3959	128.155	22.7917	20.2427	126.592	13.3319	-3.29074	159.666	24.8014	3.1177	137.758	1.2641	0.510972	137.932	-8.73725	26.0536	172.326	4.19141	1.86124	150.921	-15.6958	2.03064	144.287	-11.5833	35.7145	178.58	-12.9263	6.87127	155.016	-24.5328	17.0902	153.563	-14.1629	42.1244	185.223	-23.1874	16.944	165.016	-28.2487	21.4201	161.17	-20.0296	47.4332	200.732	8.27047	50.6463	201.529	10.7317	75.4559	185.32	30.2601	61.4548	
360	3	152.019	26.1958	68.5001	139.105	22.4503	42.2397	130.384	22.081	18.5147	128.294	13.0695	-2.21447	158.249	21.4512	0.368694	142.96	0.110192	-1.2798	134.335	-7.19921	24.797	170.937	2.13986	0.402745	149.573	-17.1225	3.64728	146.361	-13.696	36.1392	179.016	-14.6041	4.93007	156.601	-23.8803	15.4496	155.061	-18.4838	40.716	188.561	-23.6919	16.7505	166.652	-31.9505	23.9811	163.822	-19.9958	46.393	204.72	8.04484	49.0695	199.881	12.1072	75.1077	186.648	28.0847	58.6264	
361	3.00833	153.067	25.3578	67.3042	136.81	23.3879	41.6466	133.812	20.9855	17.8765	131.427	12.5566	-1.74156	159.866	19.6939	2.32784	142.763	-3.00762	-0.0200735	135.326	-7.54498	29.8036	171.824	5.71275	0.994008	151.709	-15.3331	-0.112582	148.483	-16.2996	35.5355	183.744	-12.1316	7.15644	158.616	-27.2772	15.0511	156.419	-16.4038	40.5188	192.302	-23.6179	16.7598	167.389	-29.3049	20.9715	163.619	-24.8768	44.3521	206.293	8.44971	51.4747	203.695	8.23997	76.0348	183.611	29.8434	58.7773	
362	3.01667	156.919	22.3551	70.453	137.317	23.2912	43.4695	132.405	20.3363	21.9345	132.513	12.1375	0.987504	161.842	20.2256	3.78123	145.368	-4.99849	-1.02083	136.659	-11.5797	25.3234	175.76	1.00428	0.0698684	156.078	-20.23	-1.18396	151.443	-22.4134	31.4194	182.584	-10.141	3.99797	164.512	-25.7815	8.14192	159.75	-25.0629	37.8871	195.97	-23.688	15.2516	174.798	-34.8903	16.7984	164.516	-24.8605	39.8394	204.51	11.4865	49.7151	202.009	11.421	74.8222	188.715	27.9567	63.7687	
363	3.025	153.748	22.7799	72.4032	142.136	20.0376	47.7106	138.021	17.5752	19.5586	140.071	8.27418	-0.547151	162.134	18.1606	2.11294	146.491	-3.76583	-5.06101	140.577	-18.3149	22.6517	177.342	1.30491	-1.89585	157.122	-18.6141	-5.59771	151.026	-25.924	25.752	186.306	-9.16898	5.4271	167.234	-28.5421	6.31455	160.612	-28.5031	35.0176	200.607	-23.336	14.9418	179.395	-35.5147	14.0987	165.305	-29.46	37.0041	205.891	8.66536	47.688	205.635	12.5096	75.6156	189.67	27.2374	63.0281	
364	3.03333	157.238	21.3028	69.3053	144.39	18.3584	46.3386	140.448	16.1048	19.6679	146.321	1.73044	3.93628	167.653	15.5059	3.46896	152.577	-3.09065	-8.61369	137.076	-19.6331	14.5486	179.746	1.10692	-3.38737	161.448	-22.4087	-5.91344	152.101	-31.788	20.7651	189.781	-8.39149	4.20125	172.047	-29.6483	2.35668	160.107	-32.779	26.6993	202.941	-20.0981	16.9762	185.395	-37.4057	11.3646	168.847	-37.8024	33.9093	207.313	10.0072	52.1504	206.554	12.5838	76.9879	188.51	26.2496	62.7176	
365	3.04167	159.312	19.8535	72.8069	143.346	16.1514	46.2223	145.415	9.68728	21.3167	150.849	-4.16209	6.97974	169.885	16.8386	6.86485	153.09	-4.55788	-8.91598	138.955	-22.2324	8.48045	180.393	3.40985	-2.38746	163.42	-17.8765	-10.9633	154.138	-36.4186	13.0196	192.832	-7.17557	6.41965	176.56	-24.4872	-2.29597	164.316	-38.4971	18.9003	207.851	-21.3175	17.0287	187.567	-36.6325	9.08874	171.094	-40.6561	28.4526	210.409	8.92842	49.7502	208.853	12.7309	79.4709	186.932	26.7824	65.8548	
366	3.05	159.035	18.1147	75.2669	143.469	13.357	44.0346	144.089	5.83129	21.2969	155.526	-10.1055	6.12284	170.122	16.0927	3.82398	157.261	-5.02686	-8.96199	141.041	-24.0906	6.44436	184.581	4.42786	1.59669	165.187	-15.3283	-12.2738	153.159	-36.6017	6.61447	196.469	-8.63264	5.14866	182.307	-26.7588	-3.99117	161.561	-38.6797	15.6199	207.085	-17.0729	20.4076	188.898	-31.109	6.7686	170.931	-39.4645	21.7239	207.649	9.55526	50.9817	210.83	9.73479	78.0566	192.204	25.5563	67.0587	
367	3.05833	161.425	15.3611	73.4414	144.246	9.94925	47.7173	145.062	0.514069	23.2706	158.501	-13.9028	8.91324	173.261	15.3368	7.60063	156.554	-3.76398	-8.05966	144.491	-23.8442	2.69809	185.078	4.09524	1.16254	171.427	-14.3213	-13.4229	154.066	-41.6026	3.80598	199.06	-7.88205	7.82749	179.977	-27.1263	-5.4145	163.18	-39.7159	10.4253	211.302	-19.8964	17.7858	193.484	-29.8496	6.55152	175.394	-40.6808	15.256	211.898	9.85206	50.5909	214.419	7.57677	79.0955	189.318	25.0957	63.6295	
368	3.06667	161.227	14.5227	75.5538	148.399	6.7547	47.3741	146.012	-0.606565	25.7603	158.562	-17.2197	6.39624	169.046	17.2252	7.4531	159.359	-2.46943	-8.75367	143.651	-25.2308	1.15701	186.47	5.3604	4.11429	173.978	-17.0993	-13.8562	156.274	-41.4379	-1.86281	199.027	-6.344	9.48821	183.145	-28.6929	-5.31983	165.684	-43.7275	6.17151	212.742	-18.3615	20.7902	198.279	-30.154	5.61638	178.579	-46.6517	10.2906	212.397	8.71264	53.5225	213.758	10.3658	80.7938	194.906	22.8658	68.6137	
369	3.075	160.608	14.4664	74.4677	146.904	6.68058	52.5012	149.116	-2.05232	24.6467	156.745	-17.3704	7.44739	172.109	12.63	4.80324	160.273	-6.25139	-7.57155	147.209	-30.7774	2.98238	188.092	3.47459	2.85091	173.008	-17.6136	-13.7941	157.413	-40.962	-5.31408	200.076	-9.17866	5.75221	186.732	-23.6204	-5.64643	168.579	-41.2522	0.84743	210.863	-17.1467	21.6798	200.363	-30.7324	5.01196	177.919	-47.5019	10.7439	212.794	9.63667	56.3649	212.853	9.6058	77.5445	194.853	23.6722	66.9899	
370	3.08333	160.501	16.0269	73.4113	147.795	5.87269	51.2154	145.899	-2.03639	24.2447	156.694	-14.5666	9.9369	172.507	12.5253	7.08071	159.954	-6.07073	-6.91576	145.291	-29.1577	1.30914	188.008	1.86463	1.74421	175.197	-18.2167	-13.6615	159.88	-43.755	-6.94316	202.214	-7.74489	9.77937	186.255	-27.726	-6.1201	169.834	-46.5146	-0.836315	212.743	-17.8836	18.5214	198.829	-29.5227	5.1963	182.317	-46.1866	6.51307	212.45	8.88559	53.6811	213.788	10.3131	78.3616	192.096	23.2302	67.2627	
